# AST/ASF file generated using VICON BodyLanguage
# -----------------------------------------------
:version 1.10
:name VICON
:units
  mass 1.0
  length 0.45
  angle deg
:documentation
   .ast/.asf automatically generated from VICON data using
   VICON BodyBuilder and BodyLanguage model FoxedUp or BRILLIANT.MOD
:root
   order TX TY TZ RX RY RZ
   axis XYZ
   position 0 0 0  
   orientation 0 0 0 
:bonedata
  begin
     id 1 
     name lhipjoint
     direction 0.573633 -0.743009 0.344793 
     length 2.46257 
     axis 0 0 0  XYZ
  end
  begin
     id 2 
     name lfemur
     direction 0.34202 -0.939693 0  
     length 7.3842  
     axis 0 0 20  XYZ
    dof rx ry rz
    limits (-160.0 20.0)
           (-70.0 70.0)
           (-60.0 70.0)
  end
  begin
     id 3 
     name ltibia
     direction 0.34202 -0.939693 0   
     length 7.50407   
     axis 0 0 20   XYZ
    dof rx
    limits (-10.0 170.0)
  end
  begin
     id 4 
     name lfoot
     direction 0.110749 -0.304281 0.946123   
     length 1.95925   
     axis -90 7.62852e-016 20   XYZ
    dof rx rz
    limits (-45.0 90.0)
           (-70.0 20.0)
  end
  begin
     id 5 
     name ltoes
     direction 1.53554e-011 -4.21843e-011 1   
     length 0.978318   
     axis -90 7.62852e-016 20   XYZ
    dof rx
    limits (-90.0 20.0)
  end
  begin
     id 6 
     name rhipjoint
     direction -0.488109 -0.791693 0.367385   
     length 2.31113  
     axis 0 0 0  XYZ 
  end
  begin
     id 7 
     name rfemur
     direction -0.34202 -0.939693 0   
     length 7.40965   
     axis 0 0 -20   XYZ
    dof rx ry rz
    limits (-160.0 20.0)
           (-70.0 70.0)
           (-70.0 60.0)
  end
  begin
     id 8 
     name rtibia
     direction -0.34202 -0.939693 0   
     length 7.55548   
     axis 0 0 -20   XYZ
    dof rx
    limits (-10.0 170.0)
 end
 begin
     id 9 
     name rfoot
     direction -0.127594 -0.350561 0.927808   
     length 2.07199  
     axis -90 -7.62852e-016 -20   XYZ
    dof rx rz
    limits (-45.0 90.0)
           (-20.0 70.0)
  end
  begin
     id 10 
     name rtoes
     direction -1.53542e-011 -4.21909e-011 1   
     length 1.02667   
     axis -90 -7.62852e-016 -20   XYZ
    dof rx
    limits (-90.0 20.0)
  end
  begin
     id 11 
     name lowerback
     direction -0.0103342 0.997298 -0.0727278   
     length 2.02836   
     axis 0 0 0   XYZ
    dof rx ry rz
    limits (-20.0 45.0)
           (-30.0 30.0)
           (-30.0 30.0)
  end
  begin
     id 12 
     name upperback
     direction 0.0171146 0.999786 -0.011606   
     length 2.03179   
     axis 0 0 0   XYZ
    dof rx ry rz
    limits (-20.0 45.0)
           (-30.0 30.0)
           (-30.0 30.0)
  end
  begin
     id 13 
     name thorax
     direction 0.0216927 0.999513 0.0224343   
     length 2.03882   
     axis 0 0 0   XYZ
    dof rx ry rz
    limits (-20.0 45.0)
           (-30.0 30.0)
           (-30.0 30.0)
  end
  begin
     id 14 
     name lowerneck
     direction 0.000989287 0.993907 0.110221   
     length 1.75428   
     axis 0 0 0   XYZ
    dof rx ry rz
    limits (-20.0 45.0)
           (-30.0 30.0)
           (-30.0 30.0)
  end
  begin
     id 15 
     name upperneck
     direction -0.0172474 0.994813 -0.100253   
     length 1.77058   
     axis 0 0 0   XYZ
    dof rx ry rz
    limits (-20.0 45.0)
           (-30.0 30.0)
           (-30.0 30.0)
  end
  begin
     id 16
     name head
     direction -0.00486455 0.99894 -0.0457663  
     length 1.77427  
     axis 0 0 0   XYZ
    dof rx ry rz
    limits (-20.0 45.0)
           (-30.0 30.0)
           (-30.0 30.0)
  end
  begin
     id 17 
     name lclavicle
     direction 0.927314 0.333734 -0.169441  
     length 3.97584  
     axis 0 0 0   XYZ
    dof ry rz
    limits (-20.0 10.0)
           (0.0 20.0)
  end
  begin
     id 18 
     name lhumerus
     direction 1 -4.48965e-011 -3.25313e-028   
     length 4.76468   
     axis 180 -30 -90   XYZ
    dof rx ry rz
    limits (-60.0 90.0)
           (-90.0 90.0)
           (-90.0 90.0)
  end
  begin
     id 19
     name lradius
     direction 1 -4.48969e-011 -2.8465e-028   
     length 3.52712   
     axis -180 -30 -90   XYZ
    dof rx
    limits (-10.0 170.0)
  end
  begin
     id 20
     name lwrist
     direction 1 -4.4896e-011 -7.78665e-028   
     length 1.76356   
     axis 1.91374e-015 90 90   XYZ
    dof ry
    limits (-180.0 0.0)
 end
  begin
     id 21 
     name lhand
     direction 1 -4.48959e-011 -1.55733e-027   
     length 0.859564   
     axis 9.9371e-016 90 90   XYZ
    dof rx rz
    limits (-90.0 90.0)
           (-45.0 45.0)
  end
  begin
     id 22 
     name lfingers
     direction 1 -4.48965e-011 -3.11466e-027   
     length 0.693002   
     axis 1.98742e-015 90 90   XYZ
    dof rx
    limits (0.0 90.0)
  end
  begin
     id 23
     name lthumb
     direction 0.707107 -6.34948e-011 0.707107   
     length 0.995017   
     axis -90 45 2.85299e-015   XYZ
    dof rx rz
    limits (-45.0 45.0)
           (-45.0 45.0)
  end
  begin
     id 24 
     name rclavicle
     direction -0.899388 0.348209 -0.264294   
     length 3.68366  
     axis 0 0 0   XYZ 
    dof ry rz
    limits (-10.0 20.0)
           (-20.0 0.0)
  end
  begin
     id 25 
     name rhumerus
     direction -1 -4.48965e-011 -3.01536e-027  
     length 4.90577   
     axis 180 30 90   XYZ
    dof rx ry rz
    limits (-90.0 60.0)
           (-90.0 90.0)
           (-90.0 90.0)
  end
  begin
     id 26 
     name rradius
     direction -1 -4.48966e-011 3.93291e-027   
     length 3.42692   
     axis -180 30 90   XYZ
    dof rx
    limits (-10.0 170.0)
  end
  begin
     id 27 
     name rwrist
     direction -1 -4.48969e-011 -7.78665e-028   
     length 1.71346   
     axis 1.91374e-015 -90 -90   XYZ
    dof ry
    limits (-180.0 0.0)
  end
  begin
     id 28
     name rhand
     direction -1 -4.48967e-011 -1.55733e-027   
     length 0.740957   
     axis 9.9371e-016 -90 -90   XYZ
    dof rx rz
    limits (-90.0 90.0)
           (-45.0 45.0)
  end
  begin
     id 29
     name rfingers
     direction -1 -4.48949e-011 -3.11466e-027   
     length 0.597378   
     axis 1.98742e-015 -90 -90   XYZ
    dof rx
    limits (0.0 90.0)
  end
  begin
     id 30
     name rthumb
     direction -0.707107 -6.34931e-011 0.707107   
     length 0.857719   
     axis -90 -45 -2.85299e-015   XYZ
    dof rx rz
    limits (-45.0 45.0)
           (-45.0 45.0)
  end
:hierarchy
  begin
    root lhipjoint rhipjoint lowerback
    lhipjoint lfemur
    lfemur ltibia
    ltibia lfoot
    lfoot ltoes
    rhipjoint rfemur
    rfemur rtibia
    rtibia rfoot
    rfoot rtoes
    lowerback upperback
    upperback thorax
    thorax lowerneck lclavicle rclavicle
    lowerneck upperneck
    upperneck head
    lclavicle lhumerus
    lhumerus lradius
    lradius lwrist
    lwrist lhand lthumb
    lhand lfingers
    rclavicle rhumerus
    rhumerus rradius
    rradius rwrist
    rwrist rhand rthumb
    rhand rfingers
  end

#!OML:ASF E:\I on waltz\AllaLogoMonkeySwing\Project 1\Capture day 1\Session 1\Subject1.ASF
:FULLY-SPECIFIED
:DEGREES
178
root 1.10347 23.5072 5.44423 177.603 -6.79098 181.798
lowerback 18.0849 3.82776 -0.260943
upperback 2.19018 4.4814 -1.67097
thorax -7.63174 1.98705 -2.71083
lowerneck -4.63263 18.2717 11.4478
upperneck 5.18955 25.3062 -19.3182
head 6.31454 11.8267 -5.26532
rclavicle -1.48095e-014 -1.27222e-014
rhumerus -61.7458 -8.36787 -86.5054
rradius 89.4302
rwrist -14.4603
rhand -22.7749 -23.9017
rfingers 7.12502
rthumb 3.66044 -53.85
lclavicle -1.48095e-014 -1.27222e-014
lhumerus -33.9515 -19.7199 96.923
lradius 97.619
lwrist 10.4641
lhand -12.805 -28.8505
lfingers 7.12502
lthumb 13.2811 0.706287
rfemur -19.7173 -32.1692 27.9302
rtibia 58.4165
rfoot 18.8997 -21.5554
rtoes 33.436
lfemur -18.646 -9.45142 -11.2833
ltibia 29.6322
lfoot -1.2976 -16.4852
ltoes -50.9881
179
root 1.37451 23.8389 5.51542 177.792 -15.8989 182.045
lowerback 18.1086 3.97625 -1.81755
upperback 2.90607 4.33772 -1.54331
thorax -7.00633 1.94529 -1.63259
lowerneck -4.12514 18.2761 12.423
upperneck 5.91086 25.463 -19.516
head 6.63581 11.9369 -5.42945
rclavicle -2.48481e-014 -9.54166e-015
rhumerus -62.8192 -8.62037 -85.1265
rradius 88.754
rwrist -20.1612
rhand -20.2276 -24.1825
rfingers 7.12502
rthumb 6.12008 -54.0741
lclavicle -2.48481e-014 -9.54166e-015
lhumerus -32.7476 -17.5731 97.024
lradius 94.7542
lwrist 10.2
lhand -13.9637 -28.643
lfingers 7.12502
lthumb 12.1641 0.983308
rfemur -21.7103 -28.3527 27.1694
rtibia 61.6652
rfoot 18.6119 -20.4477
rtoes 34.5776
lfemur -18.1609 -5.94033 -10.8112
ltibia 29.591
lfoot 3.19456 -5.93676
ltoes -48.0456
180
root 1.57757 24.1261 5.55831 178.16 -24.8399 182.253
lowerback 18.4276 3.78826 -2.50588
upperback 3.10911 3.94266 -1.60749
thorax -7.0061 1.76832 -1.23222
lowerneck -4.07934 18.3859 11.3378
upperneck 7.23721 25.4754 -16.0763
head 6.39192 12.0829 -4.29709
rclavicle -6.36111e-015 7.95139e-015
rhumerus -64.367 -7.80916 -84.0149
rradius 87.6717
rwrist -22.4128
rhand -17.3467 -25.5999
rfingers 7.12502
rthumb 8.90083 -55.3922
lclavicle -6.36111e-015 7.95139e-015
lhumerus -32.2097 -15.1904 95.6411
lradius 92.288
lwrist 10.3606
lhand -14.8385 -29.8068
lfingers 7.12502
lthumb 11.3205 -0.132282
rfemur -23.3752 -24.7257 25.9946
rtibia 64.9727
rfoot 17.5495 -16.2923
rtoes 32.2103
lfemur -17.5527 -6.19663 -9.99666
ltibia 28.8161
lfoot 4.78865 10.2031
ltoes -5.58261
181
root 1.73462 24.3848 5.55651 178.198 -33.7055 182.41
lowerback 18.8007 3.49564 -2.7532
upperback 3.41684 3.48259 -1.72016
thorax -6.88094 1.54518 -1.1105
lowerneck -4.18814 18.5224 11.1419
upperneck 8.85281 25.5436 -13.5875
head 6.54488 12.1956 -3.50624
rclavicle -7.23576e-014 3.49861e-014
rhumerus -65.4244 -7.8153 -82.8339
rradius 85.6849
rwrist -21.3317
rhand -18.0879 -25.7784
rfingers 7.12502
rthumb 8.18552 -55.5998
lclavicle -7.23576e-014 3.49861e-014
lhumerus -32.0514 -12.7772 93.6942
lradius 90.6711
lwrist 11.3057
lhand -14.6136 -28.6411
lfingers 7.12502
lthumb 11.5374 1.02133
rfemur -23.5505 -21.6653 24.3916
rtibia 67.1293
rfoot 16.7609 -12.5577
rtoes 27.2502
lfemur -16.7841 -4.66164 -10.2662
ltibia 29.215
lfoot 1.77175 19.1002
ltoes 28.6935
182
root 1.80856 24.5771 5.48661 177.009 -41.2913 184.719
lowerback 17.7598 3.27996 -1.49792
upperback 3.86843 3.54929 -1.28095
thorax -5.78753 1.57595 -1.2906
lowerneck -3.82542 18.5179 11.1488
upperneck 9.41687 25.409 -12.0208
head 6.42783 12.2295 -3.10961
rclavicle -4.9895e-014 1.19271e-014
rhumerus -65.9052 -7.92122 -81.2913
rradius 83.2378
rwrist -19.596
rhand -18.9947 -24.1122
rfingers 7.12502
rthumb 7.31028 -53.9659
lclavicle -4.9895e-014 1.19271e-014
lhumerus -32.1624 -10.3582 91.1938
lradius 89.8627
lwrist 13.0825
lhand -15.0345 -27.775
lfingers 7.12502
lthumb 11.1314 1.90979
rfemur -23.5223 -17.7175 25.3457
rtibia 68.5507
rfoot 16.3842 -9.71851
rtoes 23.1975
lfemur -15.5008 -2.99885 -8.19447
ltibia 29.7294
lfoot -2.02604 24.6757
ltoes 39.3677
183
root 1.94793 24.7288 5.46992 175.703 -53.0155 186.131
lowerback 18.916 1.67418 -1.05955
upperback 3.79441 1.57998 -0.725977
thorax -6.49938 0.630262 -0.537914
lowerneck -3.19098 18.36 10.6599
upperneck 10.3363 25.1088 -10.351
head 6.29376 12.1628 -2.67165
rclavicle -6.36111e-014 -1.90833e-014
rhumerus -67.1489 -7.16284 -79.609
rradius 81.5156
rwrist -20.0406
rhand -20.1888 -23.9507
rfingers 7.12502
rthumb 6.15757 -53.8412
lclavicle -6.36111e-014 -1.90833e-014
lhumerus -33.2276 -8.2025 88.5413
lradius 89.9897
lwrist 15.6271
lhand -15.8362 -26.5418
lfingers 7.12502
lthumb 10.3582 3.18312
rfemur -23.195 -19.3146 24.7705
rtibia 69.2686
rfoot 16.2923 -9.85797
rtoes 23.1877
lfemur -16.6104 -3.32415 -7.95051
ltibia 33.1126
lfoot -2.57526 24.8722
ltoes 36.1988
184
root 1.98728 24.8161 5.42045 173.383 -62.6866 188.794
lowerback 18.7353 0.790486 -0.405034
upperback 3.73629 0.64932 -0.0769548
thorax -6.46304 0.193128 0.00783174
lowerneck -1.25858 13.4975 14.3185
upperneck 11.7889 20.5185 -26.1165
head 8.25471 9.09458 -9.09338
rclavicle -5.96354e-016 -3.65764e-014
rhumerus -68.6904 -6.86062 -77.7342
rradius 80.3282
rwrist -22.4816
rhand -20.2831 -24.6279
rfingers 7.12502
rthumb 6.0665 -54.5211
lclavicle -5.96354e-016 -3.65764e-014
lhumerus -34.0691 -6.18437 85.6572
lradius 90.1117
lwrist 17.456
lhand -16.4422 -27.0968
lfingers 7.12502
lthumb 9.77351 2.65641
rfemur -22.9239 -19.6875 24.9915
rtibia 69.2798
rfoot 16.5697 -10.7219
rtoes 24.438
lfemur -16.508 -3.85045 -6.93004
ltibia 35.5526
lfoot -0.900199 22.3947
ltoes 28.9074
